PathFileType	4	(X/Y/Z)	./resultDataOpenSim/trcMotMarkerGrf/sub06/qtm-15-05.trc
DataRate	CameraRate	NumFrames	NumMarkers	Units	OrigDataRate	OrigDataStartFrame	OrigNumFrames
250.000000	250.000000	8	24	m	250.000000	321	513
Frame#	Time	L.Toe.Tip			R.Toe.Tip			L.Ankle.Lat			R.Ankle.Lat			L.Ankle.Med			R.Ankle.Med			L.Heel			R.Heel			L.Knee.Lat			R.Knee.Lat			L.Knee.Med			R.Knee.Med			L.Thigh.Upper			R.Thigh.Upper			L.ASIS			R.ASIS			V.Sacral			L.Acromium			R.Acromium			C7			L.Elbow			R.Elbow			L.Wrist.Lat			R.Wrist.Lat
		X1	Y1	Z1	X2	Y2	Z2	X3	Y3	Z3	X4	Y4	Z4	X5	Y5	Z5	X6	Y6	Z6	X7	Y7	Z7	X8	Y8	Z8	X9	Y9	Z9	X10	Y10	Z10	X11	Y11	Z11	X12	Y12	Z12	X13	Y13	Z13	X14	Y14	Z14	X15	Y15	Z15	X16	Y16	Z16	X17	Y17	Z17	X18	Y18	Z18	X19	Y19	Z19	X20	Y20	Z20	X21	Y21	Z21	X22	Y22	Z22	X23	Y23	Z23	X24	Y24	Z24

321	1.28	0.35896351	0.08776127	-0.065826056	1.0093395	0.035158417	0.044040341	0.39516673	0.21420215	-0.10124491	0.87320289	0.058504286	0.073154818	0.41660728	0.21622783	-0.017901254	0.89190558	0.082134764	-0.013723401	0.36291629	0.28134861	-0.050848182	0.81620095	0.040453205	0.015251493	0.75285685	0.31632403	-0.14045109	0.97077882	0.42641176	0.12861335	0.75604532	0.30796308	-0.016817364	0.93433443	0.42050561	0.0069858885	0.71311782	0.70643482	-0.13582171	0.78234564	0.75124019	0.2032413	0.79787993	0.75753573	-0.11077234	0.85108144	0.79007491	0.12837532	0.64540772	0.86321758	0.039845748	0.83620695	1.2561234	-0.14972522	0.82914552	1.2234095	0.20935233	0.75726961	1.2900233	0.029791461	0.8951898	0.93339481	-0.22571992	0.65640184	0.9621521	0.25721457	1.1331705	0.91522761	-0.14664716	0.67696525	0.7456498	0.36162524
322	1.284	0.37085285	0.094461397	-0.065809404	1.0092112	0.035155622	0.044190981	0.40750001	0.22066965	-0.1015347	0.8730741	0.058426398	0.073315041	0.4289651	0.22272709	-0.018240459	0.8918801	0.082373628	-0.013434232	0.37546031	0.28807595	-0.051270861	0.81612559	0.04060371	0.015319023	0.76552695	0.31952533	-0.14091628	0.97202263	0.42629392	0.12960448	0.76834499	0.31109608	-0.017021275	0.9359947	0.4210459	0.0077888324	0.7195145	0.70917617	-0.13516802	0.78664016	0.7534596	0.20416298	0.80379561	0.76009022	-0.10990211	0.85610699	0.79244004	0.12975907	0.6511959	0.86573151	0.040038148	0.8411741	1.2588214	-0.14999487	0.83467331	1.2262067	0.20918669	0.76285658	1.2927274	0.029679605	0.89779744	0.93565193	-0.22585443	0.66436669	0.96254534	0.25785614	1.1355809	0.91302572	-0.14755415	0.6915141	0.74605018	0.36180415
323	1.288	0.38279779	0.10099818	-0.065855966	1.0090795	0.035152203	0.044336948	0.41979575	0.22702803	-0.10179051	0.87292502	0.058389208	0.073504313	0.44136188	0.22909351	-0.018601726	0.89182287	0.082637668	-0.013129209	0.3879531	0.2946362	-0.051741068	0.81604493	0.040764478	0.015409256	0.77818767	0.32294421	-0.14131506	0.97304269	0.42618083	0.13054934	0.78066687	0.31461109	-0.017143686	0.93740638	0.42164849	0.0086574001	0.72590875	0.71196496	-0.1345407	0.79098048	0.7558771	0.20509235	0.80967364	0.76267666	-0.10898051	0.86103139	0.79494583	0.13107076	0.65707526	0.86826139	0.040153707	0.84615668	1.2615704	-0.15025757	0.84012646	1.2290988	0.20903382	0.76838108	1.2955252	0.029564473	0.90034958	0.93803861	-0.22603214	0.67220388	0.96303378	0.25850695	1.13784	0.91079602	-0.14855236	0.70622717	0.74676001	0.36188976
324	1.292	0.39477668	0.10735193	-0.065978481	1.0089528	0.035149218	0.04447663	0.43208721	0.23325924	-0.10205047	0.87280094	0.058375782	0.073711766	0.45378263	0.23530588	-0.018979111	0.89175169	0.082914352	-0.01282673	0.40038513	0.301048	-0.052309451	0.81596816	0.040932037	0.015511269	0.79081672	0.32657226	-0.14165737	0.97387006	0.42610518	0.13143847	0.79300125	0.31838007	-0.017178392	0.93852222	0.42230762	0.009601	0.7322803	0.71479657	-0.13395132	0.79523386	0.75837576	0.20586566	0.81554256	0.76530919	-0.10806056	0.86587318	0.7975665	0.13231348	0.66292186	0.8708405	0.040269827	0.85115329	1.2643621	-0.15051103	0.84550638	1.2320723	0.20888746	0.77383846	1.298401	0.029440294	0.90284894	0.94055386	-0.22625224	0.67999752	0.96363117	0.25920834	1.1399407	0.90852803	-0.14963395	0.72113142	0.74778874	0.36189302
325	1.296	0.40678245	0.11351131	-0.066180598	1.0088375	0.0351484	0.044608264	0.44444478	0.23934258	-0.10238284	0.87272225	0.058369797	0.073920441	0.46621011	0.24133563	-0.019372851	0.89168691	0.083192464	-0.012539366	0.4127565	0.30727626	-0.052904457	0.81590277	0.041105298	0.015615543	0.80339212	0.33040214	-0.14194949	0.97454009	0.42609207	0.13225362	0.80541977	0.32220388	-0.017164442	0.93945342	0.42298666	0.010541656	0.73861849	0.71766876	-0.13338357	0.79924854	0.7607811	0.2063168	0.82138974	0.7680107	-0.10716314	0.87068718	0.8002975	0.13350995	0.66870045	0.87348368	0.040417648	0.85615419	1.2671837	-0.15075465	0.85081385	1.2351145	0.20874003	0.77922723	1.3013397	0.029300887	0.90529525	0.94317652	-0.22647818	0.6878174	0.9643452	0.25998892	1.1418818	0.90621781	-0.150812	0.7362055	0.74913125	0.36179798
326	1.3	0.41881398	0.11947319	-0.066464239	1.008739	0.035151042	0.044731396	0.45691931	0.24526142	-0.10284944	0.8726601	0.058372858	0.074131173	0.47862221	0.24716081	-0.019781231	0.89164513	0.083465523	-0.012263711	0.42505727	0.31325234	-0.053360128	0.81585502	0.04128359	0.015721428	0.81589929	0.33443262	-0.1421948	0.97508157	0.42616068	0.13297859	0.81815979	0.32600238	-0.017237651	0.94030688	0.42365122	0.011392052	0.74492294	0.72058183	-0.13284081	0.80309179	0.76306302	0.20650319	0.82718926	0.7707961	-0.10628758	0.87559156	0.80317399	0.13471859	0.67442441	0.87619309	0.040599529	0.86115581	1.2700193	-0.15098973	0.85605508	1.2382243	0.20859579	0.78454157	1.3043237	0.02915014	0.90768604	0.94588456	-0.22663997	0.69570395	0.96517547	0.26086157	1.1436681	0.90387516	-0.15210746	0.7514093	0.75078539	0.36157922
327	1.304	0.43086087	0.12523176	-0.066828186	1.0086617	0.035157028	0.044845971	0.46945332	0.25100586	-0.10342166	0.87259029	0.058394152	0.074351968	0.4909966	0.25277819	-0.020193487	0.89163332	0.083733291	-0.011985774	0.43726708	0.31896556	-0.053629531	0.81582849	0.041467149	0.015837916	0.82832882	0.33866465	-0.14239595	0.97551409	0.42632648	0.13360567	0.83146638	0.32985838	-0.01756408	0.94106665	0.42429051	0.012120257	0.75120404	0.72353561	-0.13235353	0.80701526	0.76536616	0.206676	0.83294186	0.77364773	-0.10544177	0.88064675	0.80619964	0.13596347	0.68007741	0.87898194	0.0408207	0.8661622	1.2728606	-0.15121431	0.86123971	1.2414111	0.20846879	0.78977907	1.3073307	0.028991087	0.91001157	0.94865684	-0.22665108	0.70365516	0.96611581	0.26181978	1.1453089	0.90151721	-0.15352596	0.76669648	0.75275244	0.36121539
328	1.308	0.44290817	0.130774	-0.067261377	1.0086072	0.035165285	0.044952375	0.48191307	0.2565672	-0.10398744	0.8725453	0.058430166	0.074573587	0.50331734	0.25819558	-0.020595483	0.89164695	0.084000843	-0.011694926	0.44938103	0.32447948	-0.053863636	0.81582145	0.041659056	0.01597912	0.84067213	0.34308972	-0.14255303	0.97584986	0.42659702	0.13413397	0.84510493	0.33389332	-0.018080513	0.94159272	0.42491651	0.012759533	0.75747552	0.72652913	-0.13194898	0.81115977	0.7678124	0.20701936	0.83867107	0.77651847	-0.10464175	0.88573898	0.80928742	0.1371666	0.68556947	0.88187014	0.04109944	0.87117981	1.2757181	-0.15141868	0.86637436	1.2446773	0.20836685	0.79494593	1.3103406	0.028822764	0.91226728	0.95147047	-0.22646807	0.71161409	0.96715547	0.2628287	1.1468166	0.8991579	-0.15505222	0.78201297	0.75503648	0.36069313
